<mxfile host="app.diagrams.net" modified="2024-06-10T08:19:05.134Z" agent="Mozilla/5.0 (Macintosh; Intel Mac OS X 10_15_7) AppleWebKit/537.36 (KHTML, like Gecko) Chrome/125.0.0.0 Safari/537.36" etag="y76yDVphdJLWAgjA9SzR" version="24.5.2" type="github">
  <diagram name="페이지-1" id="Ra23IlQ3Voi3OEsl_4Wk">
    <mxGraphModel dx="1085" dy="665" grid="1" gridSize="10" guides="1" tooltips="1" connect="1" arrows="1" fold="1" page="1" pageScale="1" pageWidth="827" pageHeight="1169" math="0" shadow="0">
      <root>
        <mxCell id="0" />
        <mxCell id="1" parent="0" />
        <mxCell id="-A4ZPEPeYxS54Avfi7ZD-2" value="게시글 CRUD UseCase" style="swimlane;whiteSpace=wrap;html=1;" vertex="1" parent="1">
          <mxGeometry x="134" y="100" width="436" height="490" as="geometry" />
        </mxCell>
        <mxCell id="-A4ZPEPeYxS54Avfi7ZD-61" value="게시글 조회" style="ellipse;whiteSpace=wrap;html=1;" vertex="1" parent="-A4ZPEPeYxS54Avfi7ZD-2">
          <mxGeometry x="96" y="50" width="94" height="50" as="geometry" />
        </mxCell>
        <mxCell id="-A4ZPEPeYxS54Avfi7ZD-62" value="전체 조회" style="ellipse;whiteSpace=wrap;html=1;" vertex="1" parent="-A4ZPEPeYxS54Avfi7ZD-2">
          <mxGeometry x="46" y="140" width="94" height="50" as="geometry" />
        </mxCell>
        <mxCell id="-A4ZPEPeYxS54Avfi7ZD-63" value="선택 조회" style="ellipse;whiteSpace=wrap;html=1;" vertex="1" parent="-A4ZPEPeYxS54Avfi7ZD-2">
          <mxGeometry x="146" y="140" width="94" height="50" as="geometry" />
        </mxCell>
        <mxCell id="-A4ZPEPeYxS54Avfi7ZD-64" value="" style="edgeStyle=elbowEdgeStyle;elbow=vertical;html=1;rounded=1;curved=0;sourcePerimeterSpacing=0;targetPerimeterSpacing=0;startSize=6;endSize=6;exitX=0.5;exitY=0;exitDx=0;exitDy=0;entryX=0.5;entryY=1;entryDx=0;entryDy=0;" edge="1" parent="-A4ZPEPeYxS54Avfi7ZD-2" source="-A4ZPEPeYxS54Avfi7ZD-62" target="-A4ZPEPeYxS54Avfi7ZD-61">
          <mxGeometry relative="1" as="geometry">
            <mxPoint x="143" y="170" as="sourcePoint" />
            <mxPoint x="66" y="190" as="targetPoint" />
          </mxGeometry>
        </mxCell>
        <mxCell id="-A4ZPEPeYxS54Avfi7ZD-65" value="" style="edgeStyle=elbowEdgeStyle;elbow=vertical;html=1;rounded=1;curved=0;sourcePerimeterSpacing=0;targetPerimeterSpacing=0;startSize=6;endSize=6;entryX=0.5;entryY=1;entryDx=0;entryDy=0;exitX=0.5;exitY=0;exitDx=0;exitDy=0;" edge="1" parent="-A4ZPEPeYxS54Avfi7ZD-2" source="-A4ZPEPeYxS54Avfi7ZD-63" target="-A4ZPEPeYxS54Avfi7ZD-61">
          <mxGeometry relative="1" as="geometry">
            <mxPoint x="166" y="220" as="sourcePoint" />
            <mxPoint x="213" y="220" as="targetPoint" />
          </mxGeometry>
        </mxCell>
        <mxCell id="-A4ZPEPeYxS54Avfi7ZD-69" value="게시글 작성" style="ellipse;whiteSpace=wrap;html=1;" vertex="1" parent="-A4ZPEPeYxS54Avfi7ZD-2">
          <mxGeometry x="86" y="250" width="94" height="50" as="geometry" />
        </mxCell>
        <mxCell id="-A4ZPEPeYxS54Avfi7ZD-97" style="edgeStyle=orthogonalEdgeStyle;rounded=0;orthogonalLoop=1;jettySize=auto;html=1;entryX=0.5;entryY=1;entryDx=0;entryDy=0;dashed=1;" edge="1" parent="-A4ZPEPeYxS54Avfi7ZD-2" source="-A4ZPEPeYxS54Avfi7ZD-80" target="-A4ZPEPeYxS54Avfi7ZD-89">
          <mxGeometry relative="1" as="geometry" />
        </mxCell>
        <mxCell id="-A4ZPEPeYxS54Avfi7ZD-104" value="&amp;lt;&amp;lt;include&amp;gt;&amp;gt;" style="edgeLabel;html=1;align=center;verticalAlign=middle;resizable=0;points=[];" vertex="1" connectable="0" parent="-A4ZPEPeYxS54Avfi7ZD-97">
          <mxGeometry x="-0.6294" relative="1" as="geometry">
            <mxPoint as="offset" />
          </mxGeometry>
        </mxCell>
        <mxCell id="-A4ZPEPeYxS54Avfi7ZD-80" value="게시글 삭제" style="ellipse;whiteSpace=wrap;html=1;" vertex="1" parent="-A4ZPEPeYxS54Avfi7ZD-2">
          <mxGeometry x="86" y="410" width="94" height="50" as="geometry" />
        </mxCell>
        <mxCell id="-A4ZPEPeYxS54Avfi7ZD-96" style="edgeStyle=orthogonalEdgeStyle;rounded=0;orthogonalLoop=1;jettySize=auto;html=1;dashed=1;" edge="1" parent="-A4ZPEPeYxS54Avfi7ZD-2" source="-A4ZPEPeYxS54Avfi7ZD-79" target="-A4ZPEPeYxS54Avfi7ZD-89">
          <mxGeometry relative="1" as="geometry" />
        </mxCell>
        <mxCell id="-A4ZPEPeYxS54Avfi7ZD-102" value="&amp;lt;&amp;lt;include&amp;gt;&amp;gt;" style="edgeLabel;html=1;align=center;verticalAlign=middle;resizable=0;points=[];" vertex="1" connectable="0" parent="-A4ZPEPeYxS54Avfi7ZD-96">
          <mxGeometry x="-0.4306" y="-1" relative="1" as="geometry">
            <mxPoint as="offset" />
          </mxGeometry>
        </mxCell>
        <mxCell id="-A4ZPEPeYxS54Avfi7ZD-79" value="게시글 수정" style="ellipse;whiteSpace=wrap;html=1;" vertex="1" parent="-A4ZPEPeYxS54Avfi7ZD-2">
          <mxGeometry x="86" y="330" width="94" height="50" as="geometry" />
        </mxCell>
        <mxCell id="-A4ZPEPeYxS54Avfi7ZD-89" value="비밀번호 인증" style="ellipse;whiteSpace=wrap;html=1;" vertex="1" parent="-A4ZPEPeYxS54Avfi7ZD-2">
          <mxGeometry x="226" y="230" width="107" height="60" as="geometry" />
        </mxCell>
        <mxCell id="-A4ZPEPeYxS54Avfi7ZD-95" style="edgeStyle=orthogonalEdgeStyle;rounded=0;orthogonalLoop=1;jettySize=auto;html=1;entryX=0.721;entryY=0.968;entryDx=0;entryDy=0;entryPerimeter=0;" edge="1" parent="-A4ZPEPeYxS54Avfi7ZD-2" source="-A4ZPEPeYxS54Avfi7ZD-89" target="-A4ZPEPeYxS54Avfi7ZD-63">
          <mxGeometry relative="1" as="geometry">
            <Array as="points">
              <mxPoint x="280" y="220" />
              <mxPoint x="214" y="220" />
            </Array>
          </mxGeometry>
        </mxCell>
        <mxCell id="-A4ZPEPeYxS54Avfi7ZD-53" value="액터" parent="0" />
        <mxCell id="-A4ZPEPeYxS54Avfi7ZD-68" style="edgeStyle=orthogonalEdgeStyle;rounded=0;orthogonalLoop=1;jettySize=auto;html=1;exitX=1;exitY=0.3333333333333333;exitDx=0;exitDy=0;exitPerimeter=0;" edge="1" parent="-A4ZPEPeYxS54Avfi7ZD-53" source="-A4ZPEPeYxS54Avfi7ZD-54" target="-A4ZPEPeYxS54Avfi7ZD-69">
          <mxGeometry relative="1" as="geometry">
            <mxPoint x="230" y="340" as="targetPoint" />
            <Array as="points">
              <mxPoint x="160" y="300" />
              <mxPoint x="160" y="375" />
            </Array>
          </mxGeometry>
        </mxCell>
        <mxCell id="-A4ZPEPeYxS54Avfi7ZD-54" value="Client" style="shape=umlActor;verticalLabelPosition=bottom;verticalAlign=top;html=1;outlineConnect=0;" vertex="1" parent="-A4ZPEPeYxS54Avfi7ZD-53">
          <mxGeometry x="70" y="280" width="30" height="60" as="geometry" />
        </mxCell>
        <mxCell id="-A4ZPEPeYxS54Avfi7ZD-60" value="제목 없는 레이어" parent="0" />
        <mxCell id="-A4ZPEPeYxS54Avfi7ZD-67" style="edgeStyle=orthogonalEdgeStyle;rounded=0;orthogonalLoop=1;jettySize=auto;html=1;exitX=1;exitY=0.3333333333333333;exitDx=0;exitDy=0;exitPerimeter=0;entryX=-0.011;entryY=0.593;entryDx=0;entryDy=0;entryPerimeter=0;" edge="1" parent="-A4ZPEPeYxS54Avfi7ZD-60" source="-A4ZPEPeYxS54Avfi7ZD-54" target="-A4ZPEPeYxS54Avfi7ZD-61">
          <mxGeometry relative="1" as="geometry">
            <Array as="points">
              <mxPoint x="160" y="300" />
              <mxPoint x="160" y="180" />
            </Array>
          </mxGeometry>
        </mxCell>
        <mxCell id="-A4ZPEPeYxS54Avfi7ZD-98" style="edgeStyle=orthogonalEdgeStyle;rounded=0;orthogonalLoop=1;jettySize=auto;html=1;exitX=0;exitY=0.3333333333333333;exitDx=0;exitDy=0;exitPerimeter=0;entryX=1;entryY=0.5;entryDx=0;entryDy=0;" edge="1" parent="-A4ZPEPeYxS54Avfi7ZD-60" source="-A4ZPEPeYxS54Avfi7ZD-76" target="-A4ZPEPeYxS54Avfi7ZD-89">
          <mxGeometry relative="1" as="geometry" />
        </mxCell>
        <mxCell id="-A4ZPEPeYxS54Avfi7ZD-99" style="edgeStyle=orthogonalEdgeStyle;rounded=0;orthogonalLoop=1;jettySize=auto;html=1;exitX=0;exitY=0.3333333333333333;exitDx=0;exitDy=0;exitPerimeter=0;entryX=1;entryY=0.5;entryDx=0;entryDy=0;" edge="1" parent="-A4ZPEPeYxS54Avfi7ZD-60" source="-A4ZPEPeYxS54Avfi7ZD-76" target="-A4ZPEPeYxS54Avfi7ZD-61">
          <mxGeometry relative="1" as="geometry" />
        </mxCell>
        <mxCell id="-A4ZPEPeYxS54Avfi7ZD-76" value="DB" style="shape=umlActor;verticalLabelPosition=bottom;verticalAlign=top;html=1;outlineConnect=0;" vertex="1" parent="-A4ZPEPeYxS54Avfi7ZD-60">
          <mxGeometry x="600" y="270" width="30" height="60" as="geometry" />
        </mxCell>
        <mxCell id="-A4ZPEPeYxS54Avfi7ZD-90" style="edgeStyle=orthogonalEdgeStyle;rounded=0;orthogonalLoop=1;jettySize=auto;html=1;exitX=1;exitY=0.3333333333333333;exitDx=0;exitDy=0;exitPerimeter=0;entryX=0;entryY=0.5;entryDx=0;entryDy=0;" edge="1" parent="-A4ZPEPeYxS54Avfi7ZD-60" source="-A4ZPEPeYxS54Avfi7ZD-54" target="-A4ZPEPeYxS54Avfi7ZD-79">
          <mxGeometry relative="1" as="geometry" />
        </mxCell>
        <mxCell id="-A4ZPEPeYxS54Avfi7ZD-92" style="edgeStyle=orthogonalEdgeStyle;rounded=0;orthogonalLoop=1;jettySize=auto;html=1;exitX=1;exitY=0.3333333333333333;exitDx=0;exitDy=0;exitPerimeter=0;entryX=0;entryY=0.5;entryDx=0;entryDy=0;" edge="1" parent="-A4ZPEPeYxS54Avfi7ZD-60" source="-A4ZPEPeYxS54Avfi7ZD-54" target="-A4ZPEPeYxS54Avfi7ZD-80">
          <mxGeometry relative="1" as="geometry" />
        </mxCell>
        <mxCell id="-A4ZPEPeYxS54Avfi7ZD-100" style="edgeStyle=orthogonalEdgeStyle;rounded=0;orthogonalLoop=1;jettySize=auto;html=1;entryX=0;entryY=1;entryDx=0;entryDy=0;entryPerimeter=0;" edge="1" parent="-A4ZPEPeYxS54Avfi7ZD-60" source="-A4ZPEPeYxS54Avfi7ZD-69" target="-A4ZPEPeYxS54Avfi7ZD-76">
          <mxGeometry relative="1" as="geometry">
            <mxPoint x="615" y="370" as="targetPoint" />
            <Array as="points">
              <mxPoint x="267" y="410" />
              <mxPoint x="560" y="410" />
              <mxPoint x="560" y="330" />
            </Array>
          </mxGeometry>
        </mxCell>
      </root>
    </mxGraphModel>
  </diagram>
</mxfile>
